<?xml version="1.0" encoding="iso-8859-1"?>
<!-- Generator: Adobe Illustrator 19.0.0, SVG Export Plug-In . SVG Version: 6.00 Build 0)  -->
<svg version="1.1" id="Layer_1" xmlns="http://www.w3.org/2000/svg" xmlns:xlink="http://www.w3.org/1999/xlink" x="0px" y="0px"
	 viewBox="0 0 512 512" style="enable-background:new 0 0 512 512;" xml:space="preserve">
<g>
	<polygon style="fill:#FFFFFF;" points="313.064,496 182.936,496 169.224,400 326.776,400 	"/>
	<polygon style="fill:#FFFFFF;" points="352,368 352,384 345.224,384 150.776,384 144,384 144,368 	"/>
</g>
<g>
	<path style="fill:#DCDDDE;" d="M248,392h-88l8,24h56c13.256,0,24,10.744,24,24v64h72l16-112H248z"/>
	<rect x="248" y="368" style="fill:#DCDDDE;" width="104" height="16"/>
</g>
<g>
	<circle style="fill:#FFD768;" cx="400" cy="240" r="32"/>
	<circle style="fill:#FFD768;" cx="448" cy="320" r="32"/>
	<circle style="fill:#FFD768;" cx="64" cy="248" r="32"/>
	<circle style="fill:#FFD768;" cx="456" cy="168" r="24"/>
	<circle style="fill:#FFD768;" cx="88" cy="328" r="24"/>
	<circle style="fill:#FFD768;" cx="248" cy="128" r="88"/>
</g>
<g>
	<path style="fill:#67C18C;" d="M248,336c44.096-0.216,79.784-35.904,80-80C283.904,256.216,248.216,291.904,248,336z"/>
	<path style="fill:#67C18C;" d="M168,256c0.216,44.096,35.904,79.784,80,80C247.784,291.904,212.096,256.216,168,256z"/>
</g>
<g>
	<path style="fill:#0C3847;" d="M256,184v-16c13.232,0,24-10.768,24-24s-10.768-24-24-24h-16c-4.408,0-8-3.592-8-8s3.592-8,8-8h16
		h16V88h-16V72h-16v16c-13.232,0-24,10.768-24,24s10.768,24,24,24h16c4.408,0,8,3.592,8,8s-3.592,8-8,8h-16h-16v16h16v16H256z"/>
	<path style="fill:#0C3847;" d="M256,344.04h0.04v-0.48c44.544-4.272,79.744-41.952,79.96-87.52l0.04-8.08l-8.08,0.04
		c-29.696,0.144-56.016,15.168-71.96,37.928V256h0.12L256,243.6v-20.008c49.192-4.088,88-45.36,88-95.592c0-52.936-43.064-96-96-96
		s-96,43.064-96,96c0,50.232,38.808,91.504,88,95.592V240h-0.032L240,256v29.928c-15.944-22.76-42.264-37.784-71.96-37.928
		l-8.08-0.04l0.04,8.08c0.224,45.568,35.416,83.248,79.96,87.52v0.48H240V352H128v48h25.064l16,112h157.872l16-112H368v-48H256
		V344.04z M319.448,264.552c-4.08,32.696-30.192,58.816-62.888,62.888C260.632,294.752,286.752,268.632,319.448,264.552z
		 M176.552,264.552c32.696,4.08,58.816,30.192,62.888,62.888C206.752,323.368,180.632,297.248,176.552,264.552z M168,128
		c0-44.112,35.888-80,80-80s80,35.888,80,80s-35.888,80-80,80S168,172.112,168,128z M313.064,496H182.936l-13.712-96h157.552
		L313.064,496z M352,368v16h-6.776H150.776H144v-16H352z"/>
	<path style="fill:#0C3847;" d="M440,240c0-22.056-17.944-40-40-40s-40,17.944-40,40s17.944,40,40,40S440,262.056,440,240z M400,264
		c-13.232,0-24-10.768-24-24s10.768-24,24-24s24,10.768,24,24S413.232,264,400,264z"/>
	<path style="fill:#0C3847;" d="M448,280c-22.056,0-40,17.944-40,40s17.944,40,40,40s40-17.944,40-40S470.056,280,448,280z M448,344
		c-13.232,0-24-10.768-24-24s10.768-24,24-24s24,10.768,24,24S461.232,344,448,344z"/>
	<path style="fill:#0C3847;" d="M104,248c0-22.056-17.944-40-40-40s-40,17.944-40,40s17.944,40,40,40S104,270.056,104,248z M40,248
		c0-13.232,10.768-24,24-24s24,10.768,24,24s-10.768,24-24,24S40,261.232,40,248z"/>
	<path style="fill:#0C3847;" d="M456,200c17.648,0,32-14.352,32-32s-14.352-32-32-32s-32,14.352-32,32S438.352,200,456,200z
		 M456,152c8.824,0,16,7.176,16,16s-7.176,16-16,16s-16-7.176-16-16S447.176,152,456,152z"/>
	<path style="fill:#0C3847;" d="M88,296c-17.648,0-32,14.352-32,32s14.352,32,32,32s32-14.352,32-32S105.648,296,88,296z M88,344
		c-8.824,0-16-7.176-16-16s7.176-16,16-16s16,7.176,16,16S96.824,344,88,344z"/>
	<rect x="360" y="120" style="fill:#0C3847;" width="16" height="16"/>
	<rect x="120" y="120" style="fill:#0C3847;" width="16" height="16"/>
	
		<rect x="355.946" y="88.916" transform="matrix(0.9659 -0.2588 0.2588 0.9659 -12.6824 97.494)" style="fill:#0C3847;" width="16" height="16"/>
	
		<rect x="124.078" y="151.051" transform="matrix(-0.9659 0.2588 -0.2588 -0.9659 300.8194 278.5002)" style="fill:#0C3847;" width="16" height="16"/>
	
		<rect x="343.941" y="60" transform="matrix(0.866 -0.5 0.5 0.866 13.1527 185.0852)" style="fill:#0C3847;" width="16" height="16"/>
	
		<rect x="136.072" y="180.011" transform="matrix(0.5 0.866 -0.866 0.5 234.8553 -30.7658)" style="fill:#0C3847;" width="16" height="16"/>
	
		<rect x="324.845" y="35.147" transform="matrix(-0.7071 -0.7071 0.7071 -0.7071 537.6922 309.0138)" style="fill:#0C3847;" width="16" height="16"/>
	
		<rect x="155.142" y="204.851" transform="matrix(-0.7071 -0.7071 0.7071 -0.7071 127.9927 478.7187)" style="fill:#0C3847;" width="16" height="16"/>
	
		<rect x="299.992" y="16.077" transform="matrix(-0.866 -0.5 0.5 -0.866 562.6801 198.9281)" style="fill:#0C3847;" width="16" height="16"/>
	
		<rect x="179.995" y="223.936" transform="matrix(-0.5 0.866 -0.866 -0.5 482.8551 185.0995)" style="fill:#0C3847;" width="16" height="16"/>
	
		<rect x="271.046" y="4.085" transform="matrix(-0.9659 -0.2588 0.2588 -0.9659 545.4575 95.9762)" style="fill:#0C3847;" width="16" height="16"/>
	
		<rect x="208.941" y="235.897" transform="matrix(-0.2588 0.9659 -0.9659 -0.2588 508.6731 97.4694)" style="fill:#0C3847;" width="16" height="16"/>
	<rect x="240" style="fill:#0C3847;" width="16" height="16"/>
	
		<rect x="208.942" y="4.069" transform="matrix(-0.2588 -0.9659 0.9659 -0.2588 261.4313 224.7426)" style="fill:#0C3847;" width="16" height="16"/>
	
		<rect x="271.077" y="235.91" transform="matrix(0.9659 -0.2588 0.2588 0.9659 -53.6173 80.5376)" style="fill:#0C3847;" width="16" height="16"/>
	
		<rect x="179.995" y="16.072" transform="matrix(-0.5 -0.866 0.866 -0.5 261.1473 198.9153)" style="fill:#0C3847;" width="16" height="16"/>
	
		<rect x="299.963" y="223.936" transform="matrix(0.5 0.866 -0.866 0.5 354.839 -150.7361)" style="fill:#0C3847;" width="16" height="16"/>
	
		<rect x="155.146" y="35.144" transform="matrix(-0.7071 -0.7071 0.7071 -0.7071 247.9996 189.0125)" style="fill:#0C3847;" width="16" height="16"/>
	
		<rect x="324.839" y="204.858" transform="matrix(0.7071 0.7071 -0.7071 0.7071 247.9991 -173.0078)" style="fill:#0C3847;" width="16" height="16"/>
	
		<rect x="136.077" y="60" transform="matrix(-0.866 -0.5 0.5 -0.866 234.8502 198.9295)" style="fill:#0C3847;" width="16" height="16"/>
	
		<rect x="343.915" y="179.992" transform="matrix(-0.866 -0.5 0.5 -0.866 562.6815 526.7579)" style="fill:#0C3847;" width="16" height="16"/>
	
		<rect x="124.085" y="88.955" transform="matrix(-0.9659 -0.2588 0.2588 -0.9659 234.577 224.7909)" style="fill:#0C3847;" width="16" height="16"/>
	
		<rect x="355.91" y="151.042" transform="matrix(-0.9659 -0.2588 0.2588 -0.9659 674.2587 406.8466)" style="fill:#0C3847;" width="16" height="16"/>
</g>
<g>
</g>
<g>
</g>
<g>
</g>
<g>
</g>
<g>
</g>
<g>
</g>
<g>
</g>
<g>
</g>
<g>
</g>
<g>
</g>
<g>
</g>
<g>
</g>
<g>
</g>
<g>
</g>
<g>
</g>
</svg>
